<svg viewBox="0 0 42 41" xmlns="http://www.w3.org/2000/svg"><path d="M0 0v32.2704L18.9782 39 38 32.2704V0H0zm2.4516 2.4375h31.871l-9.8353 8.2765a6.0483 6.0483 0 0 0-3.0823-.8426h-4.2128l-3.6777.0132v10.061L2.4516 29.25V2.4375zm20.8387 13.5096c-.001 1.0108-.955 1.83-2.1326 1.8304h-3.9964v-3.6562h3.9914c1.1773-.0022 2.1342.8154 2.1376 1.8258zm12.258 14.6015l-16.5805 6.0139-15.2904-5.5628 9.6312-8.267v4.114h4.0516V21.687h3.7071c3.3281.0066 6.031-2.77 6.0369-6.2008.0023-1.2982-.3896-2.5643-1.1213-3.621l9.5641-8.209.0014 26.8924z" fill="rgba(0,0,0,1)" fill-rule="evenodd"></path></svg>